<svg viewBox="-50 0 500 300" xmlns="http://www.w3.org/2000/svg">
  <!-- Holes -->
  <circle cx="50" cy="50" r="20" fill="black"/>
  <circle cx="350" cy="200" r="20" fill="black"/>

  <!-- The full hand path -->
  <g opacity="0.6">
    <path d="M-29.5 51.9803C52.5 48.3136 241.7 43.8803 342.5 55.4803C397.7 61.8802 412.833 65.8136 415.5 65.9802M379.996 201.679L355.398 191.627L347.035 188.391L339.692 185.282L322.432 178.469L310.746 173.813L297.525 168.296L288.949 164.576L280.392 160.463L269.781 154.755L263.101 150.968L258.474 148.777C255.895 147.734 249.915 145.704 246.624 145.926C244.793 145.966 244.193 145.653 244.121 145.492C243.299 145.663 241.192 145.747 239.348 144.713" 
          stroke="white" 
          stroke-width="4" 
          fill="none"
          stroke-dasharray="1000"
          stroke-dashoffset="1000">
      <animate 
        attributeName="stroke-dashoffset"
        values="1000;0;0;1000;1000"
        dur="4s"
        repeatCount="indefinite"
        keyTimes="0;0.4;0.6;1;1"
      />
    </path>
  </g>
</svg>