<svg width="239" height="110" viewBox="0 0 439 210" fill="none" xmlns="http://www.w3.org/2000/svg">
<g filter="url(#filter0_d_682_2)">
<g opacity="0.6">
<path d="M384.255 10.3917C421.214 10.3917 426.83 129.464 425.018 189H431.935C435.723 124.029 431.491 -4.28232 384.255 2.23947C337.018 8.76127 327 26.9513 310.139 42.05C329.785 24.4577 357.674 10.3917 384.255 10.3917Z" fill="white" fill-opacity="0.6"/>
<path d="M425.018 189H289.387C286.258 163.39 280.79 106.242 283.952 82.5267C285.631 69.9385 295.64 55.0339 310.139 42.05M425.018 189C426.83 129.464 421.214 10.3917 384.255 10.3917C357.674 10.3917 329.785 24.4577 310.139 42.05M425.018 189H431.935C435.723 124.029 431.491 -4.28232 384.255 2.23947C337.018 8.76127 327 26.9513 310.139 42.05" stroke="white" stroke-width="4"/>
</g>
<g opacity="0.6">
<path id="handInPath" d="M-29.5 51.9803C52.5 48.3136 241.7 43.8803 342.5 55.4803C397.7 61.8802 412.833 65.8136 415.5 65.9802M424.5 148.48C337.5 162.314 222 199.98 66 199.98C-1.03432 199.98 -35.6667 187.48 -48 186.98" stroke="white" stroke-width="4" style="mix-blend-mode:difference"/>
</g>
</g>
<defs>
<filter id="filter0_d_682_2" x="-52.082" y="-0.00170898" width="491.082" height="209.982" filterUnits="userSpaceOnUse" color-interpolation-filters="sRGB">
<feFlood flood-opacity="0" result="BackgroundImageFix"/>
<feColorMatrix in="SourceAlpha" type="matrix" values="0 0 0 0 0 0 0 0 0 0 0 0 0 0 0 0 0 0 127 0" result="hardAlpha"/>
<feOffset dy="4"/>
<feGaussianBlur stdDeviation="2"/>
<feComposite in2="hardAlpha" operator="out"/>
<feColorMatrix type="matrix" values="0 0 0 0 0 0 0 0 0 0 0 0 0 0 0 0 0 0 0.25 0"/>
<feBlend mode="normal" in2="BackgroundImageFix" result="effect1_dropShadow_682_2"/>
<feBlend mode="normal" in="SourceGraphic" in2="effect1_dropShadow_682_2" result="shape"/>
</filter>
</defs>
</svg>
