<svg width="214" height="134" viewBox="0 0 414 334" fill="none" xmlns="http://www.w3.org/2000/svg">
<g opacity="0.6">
<path d="M280.394 67.3937C260.593 98.0762 253.024 133.925 251.714 148.013L247 244.679H254.465C256.796 191.043 269.635 78.907 302.436 35.5819C295.649 43.8368 288.314 54.3439 280.394 67.3937Z" fill="white" fill-opacity="0.6"/>
<path d="M254.465 244.679H247L251.714 148.013C253.024 133.925 260.593 98.0762 280.394 67.3937C288.314 54.3439 295.649 43.8368 302.436 35.5819M254.465 244.679H380.969V159.363C381.769 83.0477 367.514 -33.9436 308.861 28.2581M254.465 244.679C256.796 191.043 269.635 78.907 302.436 35.5819M308.861 28.2581C306.639 30.4063 304.498 32.8581 302.436 35.5819M308.861 28.2581C306.776 30.4696 304.635 32.9075 302.436 35.5819" stroke="white" stroke-width="4"/>
</g>
<g opacity="0.6">
<path id="handOutPath" d="M379.996 201.679L355.398 191.627L347.035 188.391L339.692 185.282L322.432 178.469L310.746 173.813L297.525 168.296L288.949 164.576L280.392 160.463L269.781 154.755L263.101 150.968L258.474 148.777C255.895 147.734 249.915 145.704 246.624 145.926C244.793 145.966 244.193 145.653 244.121 145.492C243.299 145.663 241.192 145.747 239.348 144.713C239.172 147.102 237.479 149.198 236.655 149.947C235.277 150.749 231.768 152.569 228.762 153.436C225.004 154.519 219.265 154.167 216.62 153.411C214.974 153.522 212.27 155.333 211.124 156.225L202.834 161.429L194.547 164.899L185.241 168.242L178.835 170.303C176.414 170.924 170.702 172.203 167.225 172.353C163.748 172.503 157.175 175.318 154.323 176.707L145.193 181.32L137.045 186.847C136.042 187.482 133.872 188.904 133.213 189.503C132.389 190.253 128.86 193.16 127.893 193.587C127.12 193.929 120.865 196.565 117.835 197.84L110.068 200.31C106.89 200.816 101.107 201.382 96.0939 195.703M96.0939 195.703C95.7868 197.187 89.3994 198.854 87.0952 197.562C86.3761 199.42 85.2973 202.208 84.8479 203.369L82.2187 212.233C81.1236 214.258 78.8834 218.367 78.6826 218.61C78.4316 218.913 75.7981 221.233 75.4759 221.375C75.1537 221.517 71.7895 222.619 70.9503 222.027M96.0939 195.703C93.5188 190.91 92.4198 179.086 108.625 170.132C124.83 161.178 135.048 155.716 138.132 154.104M70.9503 222.027C70.4049 222.885 68.1183 225.205 67.0431 226.257C66.3563 226.882 64.1676 228.029 60.9067 227.622C57.6457 227.214 55.8362 223.701 55.339 221.995L55.7432 216.81C54.8097 209.905 52.9541 195.86 52.9989 194.916C53.055 193.736 55.096 183.976 55.2082 181.616C55.2979 179.728 57.555 170.951 58.6723 166.799C59.4713 163.814 61.0445 157.702 60.9456 157.129C60.8219 156.414 61.4209 152.105 63.0318 151.393C62.705 150.305 65.7876 147.608 67.3697 146.395L71.1496 143.184M70.9503 222.027C68.5686 214.834 71.8994 201.272 73.8625 195.39M71.1496 143.184C70.5601 142.867 68.9159 142.4 67.0547 143.068C65.1936 143.737 63.512 144.056 62.9038 144.133L58.1948 146.984C56.1294 148.41 51.2471 151.48 48.2411 152.346C44.4835 153.429 39.0439 155.063 36.429 156.989C34.3372 158.53 27.3457 162.287 24.1115 163.973C22.2021 164.881 17.6791 166.585 14.8618 166.136C11.3401 165.574 9.37323 165.481 7.44735 162.866C5.90665 160.774 6.09582 159.227 6.383 158.715L5.84724 158.374C6.72628 157.023 9.18942 154.086 12.0096 153.147C15.3213 151.491 17.363 150.011 17.5428 149.546C17.7226 149.082 21.7196 144.62 24.8702 143.035C28.0208 141.45 37.4762 134.96 37.6372 134.889C37.7983 134.818 44.5864 129.699 47.5946 127.792C50.0012 126.266 53.4799 123.972 54.9184 123.015C56.292 121.766 59.8724 119.324 63.2052 119.545C66.538 119.767 71.8817 117.828 74.137 116.832C77.2564 115.902 84.2071 113.999 87.0543 113.818C89.9016 113.638 96.1005 112.067 98.8441 111.304C103.263 110.121 112.597 107.305 114.575 105.507C117.047 103.259 120.591 101.692 124.401 101.164C127.449 100.741 128.951 100.565 129.32 100.53L146.707 98.0447L169.676 94.2476L185.598 91.0618C191.943 89.7338 205.406 87.0829 208.496 87.1037C211.586 87.1244 225.308 85.6424 231.783 84.8988L246.608 84.8938L261.949 85.623L276.879 86.7269L289.268 88.1832L302.568 90.3924L314.992 92.7966L326.538 95.3956L377.496 104.179M71.1496 143.184C71.5591 142.985 72.041 142.767 72.5944 142.532M138.132 154.104C149.377 146.599 162.523 133.112 138.624 131.463M138.132 154.104C135.665 151.025 128.322 146.193 118.684 151.498C115.878 160.355 106.523 166.643 102.195 168.68C98.1566 178.55 87.4912 199.024 77.1403 201.962C72.7533 202.562 73.1272 197.831 73.8625 195.39M138.624 131.463C134.949 131.21 130.397 131.236 124.828 131.607C97.258 134.258 79.4425 139.632 72.5944 142.532M138.624 131.463C125.278 136.968 93.3885 146.887 72.5944 142.532M73.8625 195.39C76.0416 192.436 80.6379 183.771 81.59 172.746C82.5422 161.721 90.303 148.671 94.0643 143.524" stroke="white" stroke-width="4" style="mix-blend-mode:difference"/>

</g>
</svg>
